<svg id="Layer_1" data-name="Layer 1" xmlns="http://www.w3.org/2000/svg" viewBox="0 0 148.43 99.28"><defs><style>.cls-1{fill:#fff;}</style></defs><path class="cls-1" d="M132.66.36a28.35,28.35,0,0,0-8,1.25,27.16,27.16,0,0,0-7.18,3.6,25.86,25.86,0,0,0-5.77,5.57A30.77,30.77,0,0,0,109.63,14l-.16.3a26.74,26.74,0,0,0-1.57,3.58,25,25,0,0,0-1.51,7.91v14.1c.29-.67.62-1.33.94-2l.16-.3c.44-.75.9-1.51,1.41-2.25a1.36,1.36,0,0,0,.25-.77V26.83l0-1a22.44,22.44,0,0,1,1.35-7.09A25.9,25.9,0,0,1,112,15.51l.05-.09A25.34,25.34,0,0,1,114,12.5a22.91,22.91,0,0,1,5.16-5,24.26,24.26,0,0,1,6.43-3.23,25.18,25.18,0,0,1,7.14-1.12h13.25a1.37,1.37,0,0,0,1-.47A27.38,27.38,0,0,1,149.21.37H132.66Z" transform="translate(-0.79 -0.36)"/><path class="cls-1" d="M132.65,6a22.61,22.61,0,0,0-6.26,1,21.94,21.94,0,0,0-5.64,2.83,20.59,20.59,0,0,0-4.54,4.39,19.43,19.43,0,0,0-1.51,2.27l-.46.83A20.78,20.78,0,0,0,112,26c0,1.31,0,2.62,0,3.89v1.85a23.76,23.76,0,0,1,2.27-2,1.36,1.36,0,0,0,.52-1.07c0-.85,0-1.71,0-2.57a17.36,17.36,0,0,1,1-5.4,17,17,0,0,1,1-2.18l.14-.3.21-.33a16.25,16.25,0,0,1,1.3-2,17.23,17.23,0,0,1,3.94-3.82,18.6,18.6,0,0,1,4.89-2.47,19.45,19.45,0,0,1,5.45-.85h9.43A1.37,1.37,0,0,0,143.34,8c.06-.12.13-.24.19-.37l.16-.3c.26-.45.53-.9.82-1.34Z" transform="translate(-0.79 -0.36)"/><path class="cls-1" d="M132.64,11.53a17.16,17.16,0,0,0-4.54.72A15.8,15.8,0,0,0,124,14.3a14.51,14.51,0,0,0-3.33,3.21,11.4,11.4,0,0,0-1,1.46l-.27.45-.31.62a12.73,12.73,0,0,0-.68,1.61,14,14,0,0,0-.86,4.51v.17c0,.12,0,.25,0,.44v.69c.69-.39,1.38-.75,2.09-1.08a1.36,1.36,0,0,0,.79-1.06,13,13,0,0,1,.66-2.81,10,10,0,0,1,.54-1.25l.2-.41.26-.43a9.4,9.4,0,0,1,.78-1.16,11.86,11.86,0,0,1,2.73-2.65,13,13,0,0,1,3.36-1.7,14.26,14.26,0,0,1,3.75-.59H140a1.34,1.34,0,0,0,1.31-1l0-.06A1.37,1.37,0,0,0,140,11.53Z" transform="translate(-0.79 -0.36)"/><path class="cls-1" d="M132.66,25.72a28.35,28.35,0,0,0-8,1.25,27.16,27.16,0,0,0-7.18,3.6,25.86,25.86,0,0,0-5.77,5.57,30.77,30.77,0,0,0-2.12,3.22l-.16.3a26.74,26.74,0,0,0-1.57,3.58,25,25,0,0,0-1.51,7.91V64.24a1.36,1.36,0,0,0,2.26,1l0,0a1.35,1.35,0,0,0,.47-1v-12l0-1a22.44,22.44,0,0,1,1.35-7.09A25.9,25.9,0,0,1,112,40.87l.05-.09A25.34,25.34,0,0,1,114,37.86a22.7,22.7,0,0,1,5.16-5,24.26,24.26,0,0,1,6.43-3.23,25.18,25.18,0,0,1,7.14-1.12h6.41a1.37,1.37,0,0,0,1.37-1.36v-.06a1.37,1.37,0,0,0-1.37-1.37Z" transform="translate(-0.79 -0.36)"/><path class="cls-1" d="M132.65,31.31a22.61,22.61,0,0,0-6.26,1,21.94,21.94,0,0,0-5.64,2.83,20.59,20.59,0,0,0-4.54,4.39,19.43,19.43,0,0,0-1.51,2.27l-.46.83A20.78,20.78,0,0,0,112,51.34c0,1.31,0,2.62,0,3.89v5.23a1.36,1.36,0,0,0,2,1.22l.06,0a1.37,1.37,0,0,0,.75-1.22V55.22c0-1.24,0-2.53,0-3.81a17.36,17.36,0,0,1,1-5.4,17,17,0,0,1,1-2.18l.14-.3.21-.33a16.25,16.25,0,0,1,1.3-2,17.23,17.23,0,0,1,3.94-3.82A18.6,18.6,0,0,1,127.23,35a19.45,19.45,0,0,1,5.45-.85h6.4a1.37,1.37,0,0,0,1.37-1.37v-.06a1.37,1.37,0,0,0-1.37-1.36Z" transform="translate(-0.79 -0.36)"/><path class="cls-1" d="M132.64,36.89a17.16,17.16,0,0,0-4.54.72,15.8,15.8,0,0,0-4.11,2,14.31,14.31,0,0,0-3.33,3.21,11.4,11.4,0,0,0-1,1.46l-.27.45-.31.62a12.73,12.73,0,0,0-.68,1.61,14,14,0,0,0-.86,4.51v.17c0,.12,0,.25,0,.44v8c.16-.07.33-.12.5-.18.42-.13.84-.25,1.27-.36a1.36,1.36,0,0,0,1-1.32V52.15c0-.1,0-.18,0-.27v-.3a11.73,11.73,0,0,1,.72-3.71,10.84,10.84,0,0,1,.54-1.26l.2-.4.26-.43a9.4,9.4,0,0,1,.78-1.16A11.86,11.86,0,0,1,125.57,42a13,13,0,0,1,3.36-1.7,14.26,14.26,0,0,1,3.75-.59h6.4a1.37,1.37,0,0,0,1.37-1.37v-.05a1.37,1.37,0,0,0-1.37-1.37Z" transform="translate(-0.79 -0.36)"/><path class="cls-1" d="M25.56,57.46V43.78h-.91c-1,0-1.57-.5-1.57-1.38s.56-1.35,1.57-1.35h.91v-.72c0-3.87,2.1-5.82,6.25-5.82.51,0,1.07,0,1.57.07,1.11.1,1.51.66,1.35,1.54s-.55,1.27-1.55,1.22c-.28,0-.43,0-.68,0-2.29,0-3.39,1-3.39,3.11v.63H32.6c1,0,1.57.47,1.57,1.35s-.57,1.38-1.57,1.38H29.11V57.46A1.43,1.43,0,0,1,27.54,59h-.41A1.42,1.42,0,0,1,25.56,57.46Z" transform="translate(-0.79 -0.36)"/><path class="cls-1" d="M35.49,50c0-6.48,4.5-9.34,9.08-9.34s9.12,2.86,9.12,9.34-4.5,9.4-9.08,9.4S35.49,56.58,35.49,50Zm14.68,0c0-3.93-2.26-6.35-5.6-6.35S39,46.08,39,50s2.23,6.38,5.6,6.38S50.17,54,50.17,50Z" transform="translate(-0.79 -0.36)"/><path class="cls-1" d="M56.58,50c0-6.48,4.5-9.34,9.09-9.34s9.11,2.86,9.11,9.34-4.49,9.4-9.08,9.4S56.58,56.58,56.58,50Zm14.68,0c0-3.93-2.26-6.35-5.59-6.35S60.1,46.08,60.1,50s2.23,6.38,5.6,6.38S71.26,54,71.26,50Z" transform="translate(-0.79 -0.36)"/><path class="cls-1" d="M77.68,50c0-6.19,3.77-9.34,8.23-9.34a6.63,6.63,0,0,1,6.38,3.87V36.78a1.43,1.43,0,0,1,1.57-1.58h.38a1.43,1.43,0,0,1,1.57,1.58V57.42A1.43,1.43,0,0,1,94.24,59h-.38a1.43,1.43,0,0,1-1.57-1.58V55.6a6.68,6.68,0,0,1-6.35,3.84C81.48,59.44,77.68,56.26,77.68,50Zm14.7,0c0-3.93-2.26-6.35-5.62-6.35S81.2,46.08,81.2,50s2.26,6.38,5.62,6.38S92.38,54,92.38,50Z" transform="translate(-0.79 -0.36)"/><path class="cls-1" d="M4.84,83a1.43,1.43,0,0,1-1.57-1.57V67.73H2.36c-1,0-1.57-.5-1.57-1.38S1.35,65,2.36,65h.91v-.72c0-3.87,2.11-5.82,6.25-5.82.51,0,1.07,0,1.58.07,1.1.1,1.5.66,1.35,1.54s-.56,1.27-1.55,1.22c-.29,0-.44,0-.68,0-2.3,0-3.4,1-3.4,3.11V65h3.49c1,0,1.57.47,1.57,1.35s-.56,1.38-1.57,1.38H6.82V81.41A1.42,1.42,0,0,1,5.25,83Z" transform="translate(-0.79 -0.36)"/><path class="cls-1" d="M30.74,66.57V81.41A1.42,1.42,0,0,1,29.17,83h-.38a1.43,1.43,0,0,1-1.57-1.57V79.62a6,6,0,0,1-5.88,3.67c-5,0-7.26-2.86-7.26-8.55V66.57A1.43,1.43,0,0,1,15.66,65H16a1.42,1.42,0,0,1,1.57,1.57v7.89c0,3.93,1.51,5.78,4.84,5.78s4.78-2.23,4.78-6.19V66.57A1.43,1.43,0,0,1,28.79,65h.38A1.42,1.42,0,0,1,30.74,66.57Z" transform="translate(-0.79 -0.36)"/><path class="cls-1" d="M42.81,83.23c-4.62,0-6.72-1.92-6.72-7.42V67.74h-1c-1,0-1.57-.51-1.57-1.39A1.2,1.2,0,0,1,34.8,65h1.29V63.12a1.57,1.57,0,0,1,1.38-1.7l.44-.1a1.27,1.27,0,0,1,1.73,1.39V65h3.74c1,0,1.57.47,1.57,1.35s-.56,1.39-1.57,1.39H39.64V75.4c0,3.71,1,5,3.71,5,1,0,1.61.34,1.69,1.19a1.29,1.29,0,0,1-1.32,1.61c-.31,0-.62,0-.91,0Z" transform="translate(-0.79 -0.36)"/><path class="cls-1" d="M64.15,66.57V81.41A1.42,1.42,0,0,1,62.58,83h-.37a1.43,1.43,0,0,1-1.58-1.57V79.62a6,6,0,0,1-5.87,3.67c-5,0-7.26-2.86-7.26-8.55V66.57A1.42,1.42,0,0,1,49.07,65h.38A1.43,1.43,0,0,1,51,66.57v7.89c0,3.93,1.51,5.78,4.84,5.78s4.77-2.23,4.77-6.19V66.57A1.43,1.43,0,0,1,62.21,65h.37A1.42,1.42,0,0,1,64.15,66.57Z" transform="translate(-0.79 -0.36)"/><path class="cls-1" d="M78.11,66.48l0,.25c-.09,1-.69,1.38-1.73,1.38-2.95.06-4.37,2.2-4.37,6v7.33A1.42,1.42,0,0,1,70.41,83H70a1.43,1.43,0,0,1-1.58-1.57V66.57A1.43,1.43,0,0,1,70,65h.37A1.39,1.39,0,0,1,72,66.51V68a4.72,4.72,0,0,1,4.66-3.24A1.37,1.37,0,0,1,78.11,66.48Z" transform="translate(-0.79 -0.36)"/><path class="cls-1" d="M78.74,74c0-5.53,3.71-9.34,9.09-9.34,5.21,0,8.54,3.49,8.76,8.68A1.39,1.39,0,0,1,95,74.9H82.26c.13,3.49,2.3,5.47,5.79,5.47a5.87,5.87,0,0,0,4.3-1.51c.69-.6,1.13-1.1,2-.88l.38.09c1.1.29,1.32.88.72,1.76-1.57,2.33-4.11,3.49-7.48,3.49C82.39,83.32,78.74,79.61,78.74,74Zm14.52-1.86c-.25-2.86-2.2-4.68-5.37-4.68-3,0-5.12,1.57-5.53,4.68Z" transform="translate(-0.79 -0.36)"/><path class="cls-1" d="M12.6,98.7V92.19h-.43c-.48,0-.75-.24-.75-.66s.27-.64.75-.64h.43v-.35c0-1.84,1-2.77,3-2.77.24,0,.51,0,.75,0,.53,0,.72.32.64.74s-.26.6-.74.58h-.32c-1.09,0-1.62.47-1.62,1.48v.3H16c.48,0,.75.22.75.64s-.27.66-.75.66H14.29V98.7a.67.67,0,0,1-.74.74h-.2A.68.68,0,0,1,12.6,98.7Z" transform="translate(-0.79 -0.36)"/><path class="cls-1" d="M17.33,95.16a4.13,4.13,0,0,1,4.33-4.44,4.46,4.46,0,0,1,0,8.92A4.14,4.14,0,0,1,17.33,95.16Zm7,0c0-1.87-1.08-3-2.66-3S19,93.28,19,95.16s1.06,3,2.66,3S24.32,97.05,24.32,95.16Z" transform="translate(-0.79 -0.36)"/><path class="cls-1" d="M35.43,91.63V98.7a.68.68,0,0,1-.75.74H34.5a.68.68,0,0,1-.75-.74v-.86A2.84,2.84,0,0,1,31,99.59c-2.36,0-3.45-1.36-3.45-4.07V91.63a.67.67,0,0,1,.75-.74h.18a.67.67,0,0,1,.74.74v3.76c0,1.87.72,2.75,2.31,2.75s2.27-1.06,2.27-3V91.63a.67.67,0,0,1,.75-.74h.18A.68.68,0,0,1,35.43,91.63Z" transform="translate(-0.79 -0.36)"/><path class="cls-1" d="M45.41,94.81V98.7a.68.68,0,0,1-.75.74h-.18a.67.67,0,0,1-.74-.74V94.94c0-1.87-.72-2.75-2.31-2.75s-2.27,1.06-2.27,2.94V98.7a.68.68,0,0,1-.75.74h-.18a.68.68,0,0,1-.75-.74V91.63a.67.67,0,0,1,.75-.74h.18a.67.67,0,0,1,.75.74v.86A2.84,2.84,0,0,1,42,90.74C44.32,90.74,45.41,92.1,45.41,94.81Z" transform="translate(-0.79 -0.36)"/><path class="cls-1" d="M46.91,95.16c0-2.94,1.8-4.44,3.92-4.44a3.15,3.15,0,0,1,3,1.84V88.85a.68.68,0,0,1,.75-.75h.18a.67.67,0,0,1,.74.75v9.83a.67.67,0,0,1-.74.75h-.18a.68.68,0,0,1-.75-.75v-.87a3.18,3.18,0,0,1-3,1.83C48.72,99.64,46.91,98.13,46.91,95.16Zm7,0c0-1.87-1.07-3-2.67-3s-2.65,1.14-2.65,3,1.08,3,2.68,3S53.91,97.05,53.91,95.16Z" transform="translate(-0.79 -0.36)"/><path class="cls-1" d="M57.3,95.16c0-2.94,1.8-4.44,3.92-4.44a3.17,3.17,0,0,1,3,1.84v-.93a.67.67,0,0,1,.74-.74h.18a.67.67,0,0,1,.75.74v7.05a.68.68,0,0,1-.75.75H65a.68.68,0,0,1-.74-.75v-.87a3.19,3.19,0,0,1-3,1.83C59.11,99.64,57.3,98.13,57.3,95.16Zm7,0c0-1.87-1.09-3-2.68-3S59,93.28,59,95.16s1.07,3,2.67,3S64.3,97.05,64.3,95.16Z" transform="translate(-0.79 -0.36)"/><path class="cls-1" d="M68.48,96V92.19H68c-.48,0-.75-.24-.75-.66a.57.57,0,0,1,.63-.64h.61V90a.75.75,0,0,1,.66-.81l.21,0a.6.6,0,0,1,.82.65v1.1H72c.48,0,.75.22.75.64s-.27.66-.75.66H70.17v3.65c0,1.76.46,2.38,1.77,2.38.46,0,.76.16.8.57a.61.61,0,0,1-.62.76h-.44C69.48,99.56,68.48,98.65,68.48,96Z" transform="translate(-0.79 -0.36)"/><path class="cls-1" d="M74,88.84a.89.89,0,0,1,1-.9.9.9,0,1,1,0,1.79A.89.89,0,0,1,74,88.84Zm.14,9.86V91.63a.67.67,0,0,1,.74-.74H75a.66.66,0,0,1,.73.74V98.7a.67.67,0,0,1-.73.74h-.19A.67.67,0,0,1,74.09,98.7Z" transform="translate(-0.79 -0.36)"/><path class="cls-1" d="M77.46,95.16a4.33,4.33,0,1,1,4.34,4.48A4.13,4.13,0,0,1,77.46,95.16Zm7,0c0-1.87-1.08-3-2.66-3s-2.65,1.14-2.65,3,1.06,3,2.66,3S84.45,97.05,84.45,95.16Z" transform="translate(-0.79 -0.36)"/><path class="cls-1" d="M95.73,94.81V98.7a.67.67,0,0,1-.74.74h-.18a.68.68,0,0,1-.75-.74V94.94c0-1.87-.72-2.75-2.3-2.75s-2.28,1.06-2.28,2.94V98.7a.68.68,0,0,1-.75.74h-.18a.67.67,0,0,1-.74-.74V91.63a.67.67,0,0,1,.74-.74h.18a.67.67,0,0,1,.75.74v.86a2.84,2.84,0,0,1,2.8-1.75C94.64,90.74,95.73,92.1,95.73,94.81Z" transform="translate(-0.79 -0.36)"/></svg>